<svg width="75" height="95" viewBox="0 0 75 95" fill="none" xmlns="http://www.w3.org/2000/svg">
<g clip-path="url(#clip0_48_330)">
<path d="M0.320205 0.0763448C-0.0136103 0.209635 0.0067732 0.539528 0.00663507 0.842114C0.00628089 1.50705 -0.0155669 2.17712 0.0220076 2.84124C0.180133 5.63564 0.0691059 8.47064 0.0691059 11.275V46.9469C0.0691059 52.2607 0.19405 57.5672 0.19405 62.8774C0.19405 68.5905 0.072034 74.3136 3.18742 79.3701C5.52796 83.1691 9.44355 86.0197 13.7506 87.1973C17.9601 88.3487 22.5462 88.4012 26.8698 88.8141C29.3617 89.0521 32.1405 89.1602 34.2416 90.6645C35.133 91.3024 35.8791 92.1764 36.5203 93.0516C36.7558 93.3734 37.0278 94.0299 37.4902 94.0406C37.7968 94.048 37.9487 93.7713 38.1061 93.5514C38.4622 93.0535 38.8079 92.5512 39.2397 92.1145C40.6451 90.692 42.246 89.8149 44.1123 89.1502C45.9705 88.488 48.0425 88.4249 49.9847 88.2306C54.46 87.7833 59.2069 87.5984 63.4163 85.8667C65.2742 85.1026 66.9928 84.1743 68.6015 82.9636C69.4024 82.3607 70.0896 81.5904 70.7356 80.8332C72.2399 79.0696 73.4594 77.1199 74.1047 74.8721C74.7819 72.5138 74.7119 70.1011 74.7238 67.6878C74.7332 65.7786 74.8263 63.8582 74.8488 61.9403C75.0087 48.4879 74.7863 35.0521 74.7863 21.583V6.08981C74.7863 4.73284 74.7238 3.38056 74.7238 2.02909C74.7238 1.60532 74.8819 0.772276 74.6151 0.419075C74.3471 0.064868 73.7836 0.216934 73.4119 0.216909C72.3992 0.216845 71.3678 0.173989 70.3507 0.154048C66.0126 0.068973 61.6839 0.154934 57.3564 0.154934H16.8742C14.644 0.154934 12.423 0.0661418 10.1897 0.0927049C8.67714 0.110697 7.14125 0.218207 5.62916 0.152479C4.35885 0.0972667 3.09128 0.107355 1.81834 0.0922172C1.3567 0.0867275 0.766179 -0.101715 0.3202 0.0763691L0.320205 0.0763448ZM0.453191 0.306979C0.904775 0.160707 1.47964 0.341606 1.94328 0.342357C3.17174 0.344341 4.40039 0.352983 5.62823 0.362023C9.64559 0.391616 13.6659 0.386663 17.6864 0.404786C20.2677 0.416421 22.8503 0.292385 25.433 0.279928C28.8219 0.263583 32.2174 0.407185 35.616 0.404348C42.8434 0.398327 50.075 0.313608 57.294 0.385208C59.563 0.40771 61.8301 0.298796 64.1029 0.3439C65.9733 0.381021 67.9237 0.558694 69.7885 0.394417C70.9224 0.294541 72.0837 0.404829 73.2245 0.404829C73.5406 0.404829 74.199 0.280844 74.4246 0.556867C74.6901 0.882573 74.5208 1.71879 74.5277 2.1181C74.5508 3.50715 74.5533 4.89136 74.5676 6.27725C74.6232 11.7212 74.7507 17.2079 74.5389 22.6451C74.3971 26.2813 74.6395 29.9331 74.597 33.5778C74.4814 43.5788 74.7969 53.6195 74.5995 63.6271C74.527 67.3173 74.8694 71.2094 73.8811 74.8097C72.3686 80.3179 67.5145 84.3473 62.2293 86.0616C58.7721 87.183 55.0837 87.5135 51.484 87.8558C48.9561 88.0963 46.294 88.1525 43.8624 88.9703C42.174 89.5382 40.4999 90.449 39.2717 91.7553C38.8323 92.222 38.4091 92.7093 38.0477 93.2397C37.922 93.4246 37.7482 93.7826 37.487 93.7826C37.1306 93.7826 36.7441 92.9992 36.5639 92.7393C35.931 91.8259 35.093 91.0082 34.1791 90.3753C32.07 88.9147 29.3477 88.8079 26.8698 88.5642C22.6297 88.1469 18.133 88.1525 14.0005 87.0368C9.73323 85.8842 5.78284 83.1322 3.45899 79.3701C0.540321 74.6454 0.443939 69.417 0.443939 64.0644C0.443939 59.9324 0.438113 55.7664 0.308386 51.6323C0.224716 48.9657 0.345095 46.2961 0.318746 43.6358C0.267038 38.4135 0.256516 33.1839 0.256516 27.9552V17.7722C0.256516 15.886 0.15861 13.9668 0.298699 12.0872C0.36527 11.1939 0.257615 10.2391 0.256516 9.33841C0.253966 7.25688 0.265954 5.17317 0.265954 3.09115L0.256516 1.02955C0.256516 0.802434 0.175346 0.396981 0.453186 0.306977L0.453191 0.306979ZM37.6151 92.3644C37.8449 90.5558 39.4221 89.2302 40.9886 88.4305C43.9235 86.9331 46.9939 86.5832 50.2346 86.3614C58.3085 85.8085 68.9351 84.1249 72.0487 75.3094C72.4536 74.1643 72.7784 72.9629 72.8927 71.7485C73.5712 64.5123 73.2982 57.2084 73.2014 49.9455C73.0639 39.6832 73.2276 29.413 73.1876 19.1466C73.1695 14.5399 73.3107 9.88508 73.0427 5.27767C72.9902 4.38506 72.7591 3.24856 72.9121 2.36797C72.9615 2.0813 73.6224 1.598 73.4638 1.31712C73.3463 1.10888 72.6785 1.21913 72.4748 1.21671C71.5084 1.20521 70.5669 1.23584 69.6011 1.27697C65.6759 1.44407 61.6671 1.21695 57.7313 1.21695C43.5066 1.21695 29.2888 1.31806 15.0625 1.15423C11.5609 1.11391 8.04654 1.10326 4.54065 1.04448C3.67321 1.02994 2.80934 0.96716 1.94329 0.96716C1.72767 0.96716 1.22238 0.890411 1.07041 1.0761C0.8663 1.32549 1.0062 2.09257 1.0062 2.40393C1.0062 3.65538 1.00779 4.9057 1.0532 6.15228C1.22588 10.8886 1.01645 15.6648 1.13023 20.396C1.18358 22.6147 1.01738 24.8617 1.01738 27.0806C1.01738 34.8627 1.11471 42.6647 1.12671 50.4453C1.13255 54.2364 1.07771 58.072 1.26246 61.8672C1.40838 64.8652 1.08294 67.8852 1.45498 70.8739C1.94316 74.7953 3.54515 78.5567 6.20204 81.4942C11.5054 87.3579 20.1885 87.2254 27.4321 87.9183C28.7608 88.0451 30.1245 88.1019 31.4303 88.3974C33.0219 88.7573 34.36 89.297 35.616 90.3734C36.0656 90.7589 36.5012 91.1593 36.8808 91.6148C37.1055 91.8846 37.2653 92.2607 37.6151 92.3644H37.6151ZM8.37796 2.60918C9.09433 2.52494 9.89817 2.65382 10.627 2.65382C12.5227 2.65382 14.4181 2.68255 16.312 2.71297C20.2178 2.7757 24.1421 2.59441 28.0568 2.70009C31.7177 2.79893 35.4519 2.70665 39.1145 2.60755C44.8817 2.45148 50.6964 2.65382 56.4818 2.65382H68.2891C69.2687 2.65388 70.2489 2.62474 71.2254 2.65116C71.5077 2.6588 72.0088 2.46628 72.2337 2.70019C72.5641 3.04309 72.4105 4.38737 72.3736 4.84036C72.2349 6.53493 72.4123 8.31708 72.4123 10.0256C72.4123 17.1302 72.4748 24.2197 72.4748 31.3287C72.4748 42.1083 72.4992 52.9099 72.601 63.6895C72.6354 67.3379 72.7584 71.4705 71.409 74.9346C70.5569 77.1217 69.0369 79.1096 67.2271 80.5908C63.48 83.657 57.993 84.9077 53.2692 85.3531C50.6861 85.5968 48.1209 85.6061 45.5491 86.0197C43.7505 86.3083 41.6564 86.9137 40.114 87.907C39.5277 88.2843 38.9362 88.8116 38.4537 89.3139C38.245 89.5313 37.949 90.0005 37.6161 90.0155C37.3294 90.0286 37.0588 89.6231 36.8654 89.4545C36.2187 88.891 35.6256 88.3474 34.8663 87.9295C33.0168 86.9124 30.7365 86.6263 28.6815 86.3233C22.4149 85.4 15.5426 86.0366 10.0022 82.4088C8.70163 81.5573 7.47211 80.4903 6.46005 79.3077C2.74087 74.9621 2.50766 68.9541 2.56914 63.5383C2.60437 60.4334 2.48449 57.2989 2.44775 54.1937C2.37722 48.2309 2.44345 42.2341 2.44306 36.2641C2.44253 27.9938 2.38059 19.7383 2.38059 11.4625C2.38059 9.38905 2.52927 7.28148 2.43837 5.21519C2.41195 4.61346 2.38134 4.0056 2.38059 3.40349C2.38041 3.22463 2.32367 2.91233 2.44481 2.76267C2.6559 2.50174 3.62748 2.65382 3.9424 2.65382C5.40245 2.65382 6.92802 2.77969 8.37795 2.60918H8.37796ZM74.349 9.27591L74.4115 9.33838L74.349 9.27591ZM30.8056 11.7748L31.7427 19.6464L34.1166 19.3965L33.9237 16.6477L33.6793 13.0243C34.1533 13.0243 34.7908 12.9026 35.1438 13.2947C35.5249 13.718 35.3988 14.3817 35.4341 14.8984C35.5345 16.3641 35.6119 17.865 35.616 19.334H37.9899C37.9899 17.8107 38.0524 16.2939 38.0524 14.7735C38.0524 14.0143 38.114 13.1452 37.7174 12.462C36.7842 10.8544 34.0579 11.4764 32.5548 11.5818C31.9871 11.6216 31.3525 11.6128 30.8056 11.7748ZM42.9253 11.7123L42.8003 13.2117L47.0485 13.8364L45.8615 20.1461L48.2355 20.6459L50.0472 12.8993C47.7337 12.4218 45.303 11.7139 42.9253 11.7123H42.9253ZM26.495 12.3995L27.3696 17.0225L29.8685 16.5852L29.2438 11.9622L26.495 12.3995ZM51.3591 13.2742C51.0058 15.1491 50.6588 17.0256 50.2846 18.8967C50.1854 19.3923 49.7119 20.5212 49.903 20.9939C49.9781 21.1795 50.3168 21.2141 50.4845 21.2619C51.0507 21.4231 51.6126 21.6052 52.1712 21.7912C53.0683 22.09 54.1987 22.3757 55.1074 21.9638C56.6223 21.2772 57.1253 19.1103 57.7219 17.7097C58.0002 17.0564 58.3485 16.3931 58.5434 15.7106C57.4174 15.2737 56.1327 14.5046 54.92 14.3987L54.4827 15.8355L55.4823 16.2104C55.053 17.1788 54.7679 18.2179 54.3937 19.209C54.2253 19.655 53.973 20.2245 53.4831 20.3931C53.14 20.5112 52.761 20.3211 52.4211 20.2711C52.6265 18.7456 53.1642 17.2046 53.5377 15.7106C53.6242 15.3647 54.0398 14.3712 53.8506 14.0557C53.7436 13.8771 53.4144 13.8458 53.2333 13.7914C52.6195 13.6073 51.9942 13.3676 51.3591 13.2742ZM19.4981 14.2737L19.9979 15.7731C20.6338 15.5661 21.6378 15.01 22.3093 15.2667C22.9071 15.4951 23.0803 16.2239 23.2376 16.7726C23.6455 18.1952 24.1335 19.6343 24.4334 21.0832L26.7449 20.521C26.6013 18.7632 26.0267 16.7755 25.5211 15.0859C25.3166 14.4027 24.9621 13.6893 24.246 13.4334C22.716 12.8864 20.9541 13.9369 19.4981 14.2737ZM15.7497 15.7106C16.1918 17.5762 17.2926 19.4397 18.0347 21.2082C18.1803 21.5553 18.5084 22.8658 18.8905 22.9689C19.0889 23.0224 19.3814 22.8293 19.5605 22.7575C20.0499 22.5611 20.5461 22.3295 21.0599 22.2077L18.3736 14.711L15.7497 15.7106ZM42.6129 14.711C42.6119 16.2808 42.3998 18.04 42.1131 19.5839L44.4871 19.8962L45.2368 15.0234L42.6129 14.711ZM59.7304 16.2104L59.1057 17.6472L59.9178 18.0221L57.6263 21.6455L56.5443 23.5197L58.6684 24.5192C59.5867 23.1581 60.5051 21.7989 61.4534 20.4585C61.6471 20.1846 62.0937 19.2447 62.4817 19.2895C63.0746 19.358 63.3263 20.0352 63.137 20.521C62.6491 21.7739 61.7364 22.8637 61.1673 24.0819L60.2302 23.6446L59.543 25.019C60.2752 25.3608 60.9805 25.807 61.6671 26.2325C61.8601 26.3522 62.2231 26.687 62.4673 26.6154C62.859 26.5011 63.2826 25.4787 63.4981 25.1439C64.3221 23.8623 66.285 21.7352 65.6684 20.0837C65.3667 19.275 64.6283 18.7493 63.9161 18.3219C62.5904 17.5267 61.1573 16.8045 59.7304 16.2104ZM7.75323 19.8962C7.89517 20.6302 8.60136 21.3928 8.99937 22.0203C9.97657 23.5611 10.9185 25.1307 11.9389 26.6433L13.8755 25.5195L17.5614 23.6446C17.4471 22.8817 16.9385 22.0902 16.6107 21.3956C16.1142 20.344 15.7319 19.1876 15.0975 18.2095C14.7637 17.6948 14.2576 17.2622 13.6257 17.2155C11.5378 17.0617 9.4901 18.9717 7.75323 19.8962ZM14.8126 23.3322L13.1883 24.1444L10.8144 19.7713C11.2947 19.5703 11.8189 19.0877 12.3762 19.2448C12.8184 19.3695 13.0537 19.8376 13.2595 20.2086C13.7941 21.1724 14.5075 22.2731 14.8126 23.3322ZM74.4115 19.3965L74.4739 19.4589L74.4115 19.3965ZM73.7243 23.4572L73.7867 23.5197L73.7243 23.4572ZM53.3582 41.3243C53.2696 42.0223 53.1708 42.6795 53.1708 43.3859C53.1708 43.6802 53.2634 44.1711 53.1066 44.4317C52.7821 44.971 51.9401 45.2431 51.6107 45.8304C51.4196 46.1712 51.622 46.6628 52.046 46.6225C52.5296 46.5765 52.442 46.0148 52.6093 45.6975C52.7423 45.4455 52.9937 45.2737 53.2333 45.1352L53.6081 47.3842C52.4255 47.1132 51.8586 48.8133 51.6498 49.6957C51.1675 51.7343 51.2752 54.2167 52.1669 56.1303C52.3709 56.5682 52.5253 57.3396 52.9209 57.6297C52.9209 55.7653 53.7853 54.0431 53.9149 52.1946C54.0135 50.7879 53.5863 49.6379 53.0458 48.3837L52.7335 48.5087C52.9962 48.0899 53.2982 47.9527 53.733 47.759C53.9006 49.0022 54.7237 50.3234 54.7167 51.5698C54.7151 51.8503 54.632 52.3692 54.5134 52.6254C54.3709 52.9331 54.0535 53.1053 54.2081 53.5037C54.3395 53.8422 54.7935 53.8848 54.9706 53.5621C55.1061 53.3155 55.0444 52.9064 55.045 52.6319H55.1074C55.2554 53.2716 55.523 53.8918 55.7521 54.506C55.8445 54.7537 56.0344 55.0466 56.0158 55.3182C55.9591 56.1456 55.0878 56.8097 54.8682 57.5672C54.313 59.482 55.0988 61.2662 55.8099 63.0023C55.9559 63.359 56.011 64.2868 56.2694 64.5254C56.495 64.7341 56.7584 64.4211 56.8755 64.2493C57.2043 63.767 57.4736 63.1404 57.5773 62.565C57.9504 60.4928 56.8906 58.8873 56.1695 57.0674H56.0445C55.8159 57.5509 56.1259 58.1342 56.2319 58.6292C56.4955 59.8593 57.1908 61.5786 56.6692 62.8149C56.3946 62.0015 55.9895 61.2137 55.7883 60.3785C55.4417 58.9394 55.6656 57.1784 56.3569 55.8804L58.594 60.4409L58.6059 61.6904C57.8354 62.049 58.4991 63.1647 58.9345 62.61C59.1844 62.2914 58.9514 61.7004 59.0432 61.3156C59.2512 61.5667 59.5505 61.9178 59.6267 62.242C59.866 63.2647 58.669 64.2943 58.5084 65.3138C58.2785 66.775 58.7814 68.0114 59.1856 69.3745C59.3062 69.7806 59.2625 70.3029 59.4499 70.6796C59.776 71.333 60.2402 70.1092 60.3283 69.8743C60.74 68.7817 61.0511 67.5409 60.8599 66.3758C60.7768 65.8673 60.6981 65.3607 60.5157 64.8765C60.2958 64.2917 59.9865 63.8919 60.0428 63.2522H60.1052C60.5507 64.8809 61.6383 66.324 61.985 68.0001C62.1162 68.6373 60.8886 68.9128 61.4009 69.615C61.8413 70.2179 62.2024 69.4251 62.2918 69.0622H62.3542C62.4061 69.7006 62.6616 70.3085 62.7716 70.9363C63.0046 72.2651 63.1383 74.0044 62.7466 75.3094C62.576 75.8779 62.2624 76.319 61.9488 76.8088C61.8751 76.9243 61.7807 77.1455 61.9463 77.2361C62.1843 77.366 62.5235 76.9549 62.656 76.8088C63.1451 76.2665 63.5037 75.5093 63.7018 74.8096C63.8798 74.1824 63.8311 73.577 63.8561 72.9355C63.9329 70.9545 63.6387 68.5624 62.7916 66.7507C63.5543 66.9175 63.6337 68.1013 63.8911 68.7498C64.3065 69.7968 64.8744 70.5028 65.561 71.3736C65.9102 71.8166 66.2057 72.3476 66.6649 72.6856C66.6661 70.7458 66.7292 68.7392 65.2717 67.1986C64.9337 66.8413 64.4658 66.4233 63.9785 66.2921C63.5269 66.1709 62.884 66.1541 62.5036 65.8386C62.1868 65.5756 61.9619 64.829 61.8545 64.4392C62.0837 64.6728 62.3393 65.1151 62.6666 65.2076C63.0165 65.3069 63.2482 64.9371 63.1202 64.6335C62.9908 64.3286 62.6616 64.4304 62.4167 64.3136C62.1081 64.1662 61.727 63.827 61.5234 63.554C61.0873 62.9705 60.8199 62.1489 60.4726 61.503C60.1352 60.8764 59.686 60.2854 59.2931 59.6913C60.287 60.3485 60.7912 61.5242 61.5115 62.4401C62.2693 63.4034 63.3688 64.1281 64.5408 64.5017C64.7188 63.9 64.384 63.2378 64.1485 62.69C63.4813 61.1394 62.5273 60.0068 60.9174 59.3745C60.3308 59.144 59.4505 59.3202 58.9389 59.0026C58.5022 58.7315 58.2161 57.8264 57.9812 57.3798C58.3304 57.4989 58.8714 58.6774 59.2912 57.9903C59.8416 57.0899 57.8036 56.9843 57.5034 56.504C56.2953 54.5706 55.152 52.0379 54.8575 49.7581C55.7989 50.7445 55.7419 51.8681 56.3113 53.0067C56.6732 53.7304 57.3948 54.1611 57.9218 54.7559C58.1773 55.0441 58.5859 56.0955 58.9807 56.1068C59.5855 56.1242 59.2537 54.6734 59.225 54.3186C59.1182 52.9958 58.5372 51.3501 57.6007 50.3853C57.4331 50.2127 56.4416 49.264 56.2468 49.5915C56.0483 49.9252 57.1139 50.6143 57.2987 50.8836C57.5633 51.2691 57.7863 51.656 58.0038 52.0696C58.3829 52.79 58.5159 53.4687 58.6684 54.2562H58.6059C58.2098 53.3133 57.3496 52.6004 56.8671 51.6948C56.6195 51.2299 56.2799 50.7579 56.1135 50.2579C56.0271 49.9981 56.1269 49.6809 55.9525 49.4573C55.6616 49.0844 55.115 48.9038 54.6701 49.0085L54.1079 46.3846C54.444 46.732 54.5153 48.1869 55.2865 47.7478C55.9655 47.3612 55.032 46.6388 54.7739 46.3221C54.5065 45.9942 54.1173 45.724 53.9516 45.3226C53.2354 43.587 54.125 41.4282 54.3578 39.7001H54.4202C54.4999 41.5548 54.2672 43.6418 55.0373 45.3851C55.2519 45.8711 55.6691 46.2774 55.9893 46.697C56.3926 47.2255 56.9444 48.2101 57.6688 48.2588C57.6364 46.6903 57.8283 44.8733 57.2674 43.3859C56.8928 42.3927 56.422 41.3474 55.8538 40.4497C55.5297 39.9378 54.9413 39.4349 54.8349 38.8254C54.7314 38.2327 55.0405 37.7603 55.1699 37.2011C55.5507 37.673 55.0734 37.9581 55.2787 38.444C55.5154 39.004 56.2405 38.7235 56.2804 38.2006C56.324 37.6286 55.7074 37.2085 55.5385 36.7014C55.3924 36.2627 56.1046 35.3372 56.4194 35.0771C56.4195 36.7762 56.7245 38.4946 57.6497 39.9499C58.3448 41.0433 59.3618 41.8988 60.0428 43.0111H60.1677C60.4026 42.5235 60.2302 41.9143 60.2302 41.3868C60.2302 39.7185 60.1527 37.9844 59.2925 36.514C58.9707 35.9638 58.6571 35.2578 58.1686 34.8406C57.9812 34.6807 57.6071 34.4521 57.4055 34.7222C57.2188 34.9723 57.9081 36.0623 58.0244 36.389C58.5984 38.0017 59.4074 39.7943 59.543 41.5118C58.1355 39.8849 57.3 38.2005 57.0176 36.0766C56.9601 35.644 56.7907 35.004 56.879 34.5773C56.9767 34.1048 57.969 33.2048 58.4185 33.0371C58.654 32.9491 58.8339 33.1945 58.9101 33.3903C59.0463 33.7394 59.0107 35.1665 59.9035 34.4772C60.6044 33.9364 59.4368 32.961 59.0432 32.6407V32.5782C59.3406 32.4218 60.0084 31.9538 60.3308 32.229C60.8993 32.7148 60.7231 34.2063 60.8105 34.8897C61.0323 36.6288 61.6883 38.06 62.5223 39.5751C62.7672 40.0193 63.0239 40.9084 63.4788 41.1369C64.8288 39.1345 64.5939 36.7114 63.788 34.5148C63.5225 33.7915 63.0464 33.2816 62.4792 32.7765C62.1943 32.5225 61.8101 32.2282 61.5421 32.6407L60.9798 31.891C62.1768 31.7965 63.9254 31.3978 64.5077 32.7656C64.742 33.3155 64.1466 34.4321 64.7351 34.763C65.6403 35.2724 66.3044 33.6362 65.228 33.5153C65.3492 33.0741 65.1137 32.6528 64.9156 32.2658C66.1682 32.7872 66.6099 33.474 66.6624 34.8272C66.7223 36.3733 65.3848 37.7096 65.4166 39.3252C65.4416 40.5975 65.6947 41.8738 66.1076 43.0736C66.5099 44.2434 67.0684 45.2611 67.2271 46.5096C67.5395 46.4112 67.5944 46.1074 67.7006 45.8224C67.9612 45.1231 68.0911 44.3579 68.2816 43.6358C69.11 40.5005 69.28 37.2136 67.5395 34.3274L67.2896 34.5148L67.1646 33.7027C68.7115 34.7921 69.3324 36.622 70.0384 38.2632H70.1633C70.2377 37.9073 70.0721 37.494 70.0009 37.1387C69.7691 35.9885 69.3618 35.1108 68.6065 34.2025C66.0789 31.1629 61.2054 29.9834 57.9187 32.5574C55.4096 34.5224 54.5371 37.0864 53.6521 40.0124C53.5059 40.4961 52.0936 41.3492 52.5491 41.9208C52.8278 42.2704 53.1923 41.4775 53.3582 41.3243ZM4.50466 38.8879C4.89443 38.759 5.03318 37.7613 5.21522 37.3886C5.76848 36.2561 6.45049 35.0065 7.50334 34.2649L7.3784 35.0771L7.06603 34.9521C6.69195 35.8702 6.24396 36.7923 6.01868 37.7634C5.48885 40.048 5.95065 42.3048 6.58443 44.5104C6.83482 45.3818 6.95533 46.3531 7.44087 47.1343H7.50334C7.78478 46.6096 7.77616 45.895 7.98407 45.3226C8.72137 43.2932 9.46342 41.4157 9.24189 39.2003C9.08771 37.6577 7.90154 36.4752 8.05497 34.8897C8.10177 34.4063 8.13275 33.8412 8.51621 33.4852C8.83526 33.1888 9.29218 32.9936 9.68988 32.8281L9.37752 34.0775C8.35422 34.2859 9.07065 35.8095 9.93147 35.3158C10.5123 34.9826 9.9196 33.8763 10.1315 33.3279C10.6571 31.9674 12.4425 32.2412 13.6257 32.3908L13.1259 33.1404C12.7743 32.7516 12.4482 33.0312 12.1263 33.3294C11.5798 33.8358 11.1324 34.2956 10.8875 35.0146C10.1261 37.2501 9.88773 39.6148 11.2517 41.6367C11.7252 41.4562 11.9481 40.5674 12.1751 40.1374C13.012 38.5522 13.6828 37.0794 13.865 35.2645C13.9278 34.6387 13.7517 33.0863 14.3341 32.684C14.65 32.4658 15.2645 32.8917 15.5623 33.0155C15.3205 33.4078 14.7628 33.751 14.6091 34.1409C14.3702 34.7472 14.9749 35.3918 15.5377 34.9082C15.8545 34.636 15.6583 34.3144 15.6974 33.9791C15.7239 33.7522 15.9189 33.541 15.9996 33.3279C16.5315 33.6338 17.5749 34.3481 17.7711 34.9521C17.9172 35.4016 17.6979 36.2313 17.6417 36.7014C17.3966 38.751 16.5259 40.4412 15.1875 42.0115C15.3253 40.2681 16.0974 38.4036 16.6779 36.7638C16.7923 36.4409 17.4885 35.3551 17.2194 35.1157C17.0109 34.9301 16.6711 35.1512 16.5003 35.2889C16.0275 35.6701 15.7598 36.3755 15.4501 36.8888C14.5975 38.3015 14.7289 39.6403 14.5449 41.1994C14.4692 41.841 14.3157 42.9309 14.6252 43.5109H14.6877C15.424 42.4798 16.3937 41.526 17.0489 40.4497C17.9662 38.9428 18.2486 37.2536 18.2486 35.5144C18.5732 35.7649 19.3011 36.7008 19.1463 37.1387C18.9565 37.6755 18.3541 38.0833 18.4495 38.7002C18.5437 39.3104 19.3786 39.3146 19.4741 38.7004C19.5378 38.2905 19.2655 38.0683 19.4356 37.6385H19.4981L19.9979 38.9504C19.7868 39.1425 19.8447 39.5565 19.6561 39.8071C18.6546 41.1387 17.587 42.9009 17.278 44.5729C17.0338 45.8944 17.1875 47.3613 17.1866 48.6961C17.896 48.6426 18.4277 47.6555 18.8188 47.1343C19.1458 46.6985 19.5677 46.2651 19.7814 45.7599C20.5285 43.9933 20.1644 41.9845 20.3102 40.1373H20.3727C20.623 41.8385 21.551 43.9753 20.8481 45.6974C20.6753 46.1206 20.3073 46.3449 20.0471 46.6979C19.8057 47.0254 18.8467 47.8136 19.5642 48.1755C20.3533 48.5736 20.3966 47.1194 20.7475 46.7594L20.1853 49.4458C19.7771 49.253 19.1221 49.5075 18.8845 49.9034C18.7416 50.1416 18.8147 50.4919 18.7209 50.7577C18.5321 51.2926 18.1906 51.8212 17.9168 52.3195C17.4602 53.1503 16.6789 53.8202 16.312 54.6935H16.2495C16.3903 53.9354 16.5088 53.2712 16.8588 52.5694C17.0749 52.136 17.3052 51.7222 17.5759 51.32C17.7511 51.0598 18.8113 50.3536 18.6181 50.0288C18.423 49.701 17.4254 50.6442 17.2606 50.8227C16.3335 51.8265 15.8269 53.4238 15.6979 54.7559C15.6649 55.0957 15.3783 56.5696 15.9381 56.5831C16.33 56.5926 16.7666 55.477 17.0075 55.1932C17.5021 54.6108 18.2258 54.2001 18.5729 53.5065C19.1534 52.3464 19.0327 51.2046 19.9979 50.1954C19.6989 52.5107 18.5951 54.934 17.449 56.9413C17.1751 57.4211 15.0159 57.6036 15.6784 58.4869C16.1598 59.129 16.609 57.9501 16.9992 57.8171C16.7365 58.267 16.5018 59.1602 16.0488 59.4407C15.6584 59.6825 15.1128 59.5719 14.6877 59.6825C13.7447 59.9293 12.7762 60.4515 12.0819 61.1462C11.3472 61.8809 10.9981 62.9286 10.639 63.8769C10.5576 64.0918 10.2561 64.754 10.5397 64.9302C10.7056 65.0339 10.9358 64.8284 11.0643 64.7453C11.4712 64.481 11.9651 64.3842 12.3762 64.1274C13.8374 63.2141 14.4049 61.2487 15.6872 60.1286C15.3421 60.777 14.857 61.3518 14.5236 62.0028C14.1901 62.6543 13.935 63.5464 13.4696 64.1087C13.2727 64.3467 12.924 64.7222 12.6383 64.8484C12.3719 64.9658 12.0481 64.834 11.9144 65.1913C11.789 65.5268 12.1106 65.8217 12.4377 65.7036C12.748 65.5918 12.9636 65.1689 13.1883 64.939C13.079 65.3388 12.8933 66.0503 12.5855 66.339C11.9515 66.9343 10.8824 66.7675 10.1897 67.386C8.57268 68.8298 8.24533 71.21 8.5029 73.2478C8.9434 72.908 9.23315 72.3788 9.56019 71.9359C10.1982 71.0719 10.7951 70.4028 11.1852 69.3745C11.4338 68.7192 11.5168 67.4816 12.2513 67.2504C11.6675 69.7737 10.6827 72.7824 11.5034 75.3719C11.7329 76.0959 12.0893 76.8262 12.627 77.371C12.752 77.4972 13.0605 77.872 13.2754 77.7371C13.444 77.6315 13.312 77.3841 13.2296 77.2723C12.8987 76.8256 12.6056 76.3483 12.4411 75.8092C12.0507 74.5297 12.1339 72.8061 12.3611 71.4986C12.4728 70.8551 12.7224 70.2179 12.751 69.5619H12.8135C12.902 69.9205 13.2685 70.7102 13.7042 70.1148C14.2333 69.392 13.0074 69.1727 13.0985 68.5624C13.3488 66.8844 14.3974 65.3388 14.9376 63.752H15.0001C15.0879 64.7453 14.3352 65.8354 14.2058 66.8756C14.0611 68.0388 14.3658 69.2233 14.7767 70.3116C14.8684 70.5546 15.3854 71.8472 15.6939 71.12C15.8755 70.6921 15.8345 70.1398 15.9638 69.6869C16.3387 68.3731 16.8025 67.2136 16.5566 65.8136C16.4775 65.3631 16.3538 64.8977 16.1187 64.5017C15.79 63.9481 15.248 63.4109 15.4147 62.6899C15.491 62.3601 15.7882 62.0084 15.9996 61.7529C16.0412 62.084 15.7807 63.4471 16.4967 63.2116C17.165 62.9923 16.6024 62.3632 16.4744 62.0521C16.3793 61.821 16.351 61.2518 16.3752 61.0032C16.4182 60.5609 16.7954 60.0324 16.9799 59.6288C17.491 58.5095 17.9972 57.3797 18.6235 56.3177C19.1244 57.7985 19.5249 59.1609 19.2194 60.7533C19.0546 61.6123 18.6164 62.4132 18.3736 63.2522C17.804 62.0752 18.4806 60.3247 18.7352 59.129C18.8378 58.6475 19.2139 57.837 18.8109 57.4423C18.0736 59.2665 17.0573 60.9332 17.4528 63.0023C17.562 63.5733 17.8296 64.2187 18.173 64.6891C18.2925 64.8527 18.5547 65.1595 18.7741 64.9627C19.0388 64.7253 19.0671 63.7988 19.2139 63.4396C19.9248 61.7004 20.6512 59.9149 20.104 58.0045C19.8812 57.2266 19.0237 56.5954 18.9176 55.7555C18.8843 55.492 19.0798 55.1864 19.1642 54.9433C19.3811 54.3189 19.6058 53.698 19.8104 53.0692H19.8729C19.8729 53.3414 19.7989 53.7504 19.9466 53.992C20.1187 54.2736 20.5538 54.2272 20.6844 53.937C20.8662 53.5332 20.559 53.362 20.3922 53.0561C20.2657 52.824 20.151 52.2087 20.1562 51.9447C20.1808 50.693 21.002 49.4638 21.0599 48.1963C21.5404 48.2673 21.8317 48.503 22.1219 48.8835L21.8096 48.7586C21.3092 49.9198 20.8837 51.0167 20.9414 52.3195C21.0004 53.6484 21.5277 54.9728 21.8312 56.2553C21.9664 56.8272 21.897 57.4548 22.0595 58.0045H22.1219C23.2988 55.5208 23.9044 52.8578 23.223 50.133C22.9918 49.2084 22.4759 47.5643 21.2473 47.759L21.5597 45.51C21.8014 45.6497 22.0468 45.8213 22.1851 46.0723C22.3718 46.4108 22.3181 47.0501 22.8713 46.9973C23.2389 46.9623 23.3436 46.4927 23.1822 46.2052C22.8534 45.6194 22.0033 45.3524 21.6864 44.8097C21.5164 44.5187 21.6226 43.9634 21.6221 43.6358C21.6211 42.9992 21.5246 42.3175 21.3723 41.6992C21.5491 41.8567 21.9209 42.6385 22.1996 42.3028C22.6719 41.7341 21.3062 40.9829 21.1307 40.5737C20.2131 38.434 19.9348 36.2618 18.3005 34.4523C17.329 33.3768 16.1009 32.3851 14.6877 31.9801C10.0738 30.6579 4.719 33.9084 4.50466 38.8879V38.8879ZM61.6671 32.8905C62.0919 33.3253 62.3211 33.8512 62.5885 34.3899C63.3626 35.9491 64.2028 38.3701 63.4788 40.0749H63.4163C62.6472 38.479 62.2181 36.4463 61.9119 34.7022C61.8264 34.2175 61.4809 33.3475 61.6671 32.8905ZM13.0634 33.3903C12.9161 35.1938 12.4048 36.9763 11.889 38.7005C11.7224 39.2574 11.6062 40.1914 11.2517 40.6371C10.5894 38.8816 11.2499 36.5765 12.0486 34.9521C12.3029 34.4349 12.5153 33.6515 13.0634 33.3903ZM67.4145 34.8272L67.6019 37.6385L67.5214 41.7616L67.1646 43.261H67.1022C66.1894 40.9513 66.7867 39.0019 67.2765 36.7014C67.3964 36.1369 67.2146 35.3173 67.4145 34.8272ZM7.31593 35.3894C7.31137 35.9366 7.24414 36.4665 7.34472 37.0137C7.5745 38.2642 8.09721 39.4167 8.18492 40.6996C8.25807 41.7683 7.96333 42.8036 7.69076 43.8232H7.62829C7.17099 42.4716 7.22453 41.2318 7.19004 39.825C7.16924 38.9757 7.03655 38.1812 7.11789 37.3261C7.16799 36.8 6.99519 35.8128 7.31593 35.3894ZM55.2324 40.3872C55.6608 40.7545 55.8132 41.4353 56.0085 41.9491C56.586 43.4673 56.8078 45.0486 57.1066 46.6345C56.689 46.4225 56.3816 45.8722 56.2086 45.4475C55.7636 44.3553 55.6378 43.1035 55.4354 41.9491C55.3553 41.4921 55.1375 40.8372 55.2324 40.3872ZM19.5605 40.7621C19.351 42.1878 19.1931 43.6697 18.834 45.0727C18.647 45.8034 18.3703 46.5951 17.7488 47.0718C17.9182 44.9288 18.4312 42.6714 19.4356 40.7621H19.5605ZM59.6055 41.5118L59.543 41.5742L59.6055 41.5118ZM52.7335 48.5712L52.8528 50.6327L52.4211 54.8809H52.3586C51.818 53.4685 51.8705 51.6614 52.1469 50.1954C52.2454 49.6734 52.3529 48.9634 52.7335 48.5712ZM22.1844 48.946C23.0689 51.0734 22.9207 53.0355 22.6217 55.2557H22.4968L22.0538 50.1954L22.1844 48.946ZM24.4959 62.565L24.5584 68.1875H18.9358V68.25H19.3107V68.3125H18.9358V68.375L24.9332 68.4999V68.5624C24.4595 68.6224 23.9747 68.6573 23.4963 68.6192C23.177 68.5936 22.9381 68.4312 22.6842 68.6873L22.9341 68.7498V68.8123C22.203 68.8123 21.5354 68.6248 20.81 68.6248C20.5224 68.6248 20.1722 68.5568 20.0603 68.8747L22.1219 69.124L24.3709 69.1871L22.4968 69.224L20.6851 69.5619V69.6869L22.4343 69.5794L23.6837 69.6219L24.7458 69.4464L26.495 69.8118C26.4174 69.9955 26.4004 70.3185 26.2253 70.4347C25.8528 70.6814 24.6268 70.4366 24.1835 70.3841C23.6495 70.3197 23.2071 70.4347 22.6842 70.4347C21.7827 70.4347 21.0629 70.3716 20.1853 70.7489V70.8739C20.7869 71.0169 21.2852 70.6752 21.872 70.6627C22.7883 70.644 23.7065 70.7377 24.6208 70.7489C25.688 70.7614 26.6134 70.649 27.557 71.1862C27.2617 71.3324 27.0053 71.5392 26.6824 71.6279C26.3561 71.7179 25.9676 71.6954 25.6855 71.9053C25.5569 72.0015 25.0857 72.5919 25.4528 72.6799C25.8047 72.7643 25.9918 72.1308 26.3085 72.034C26.6161 71.9396 26.9408 71.9384 27.2447 71.8153C27.7137 71.6254 28.0803 71.2175 28.5566 71.0438C29.538 70.6864 30.994 70.7677 31.7427 71.4986L29.3687 71.811C29.5014 72.2102 30.4936 71.9984 30.8681 71.9984C31.6269 71.9984 32.0917 71.5604 32.8047 71.423C33.1492 71.3561 33.4631 71.5467 33.8043 71.5529C34.2522 71.5604 34.7168 71.4361 35.1787 71.4361C35.2593 71.6923 35.4281 71.7504 35.6785 71.811V71.9359C34.9784 72.197 33.9374 71.9678 33.3207 72.3788C33.1749 72.4757 32.483 73.2066 32.8871 73.3259C33.1811 73.4127 33.5219 72.7574 33.7524 72.6181C34.1704 72.3663 35.2577 72.2982 35.7409 72.3451C36.4283 72.4107 37.0694 73.0566 37.6742 73.3509C37.852 73.4377 38.1013 73.8732 38.3246 73.6464C38.7246 73.2403 37.7063 73.0154 37.4902 72.9979C38.0049 72.5437 38.3675 72.3888 38.1774 71.5611C39.1131 71.2006 40.0656 70.9363 41.0511 70.9363C41.1794 71.5379 42.3477 71.6192 42.8628 71.6235V71.686C42.3455 71.8341 40.7405 72.7268 41.5348 73.4484C41.9596 73.8344 41.9033 72.8536 41.8633 72.6856L43.4251 71.766L44.4871 71.8628L45.5491 71.791L47.3608 72.1233V72.1858C47.0937 72.2951 46.5275 72.4076 46.3633 72.6543C45.9553 73.2678 47.4604 73.6508 46.8449 72.9992C46.7629 72.913 46.6855 72.8424 46.6112 72.748C46.9749 72.5987 47.4367 72.297 47.8246 72.2551C48.1279 72.2226 48.4342 72.4057 48.7352 72.4301C48.9921 72.4507 49.2987 72.3663 49.5447 72.4469C50.0618 72.6156 50.2707 73.0948 50.9218 72.9979C49.9892 71.9877 48.3834 72.1264 47.1109 71.8971C46.3551 71.7616 45.7643 71.4998 44.9869 71.5611C45.7188 70.5521 47.3416 71.2306 48.3604 71.443C48.6195 71.4967 48.8547 71.3899 49.1101 71.433C49.5358 71.5054 50.5026 71.8903 50.7968 71.4361L48.1105 71.1237V71.0613C48.6541 70.9319 49.1642 71.0163 49.1725 70.3116C50.0472 70.3116 51.0099 70.8126 51.8589 70.5615V70.499L50.5469 70.1866V70.1242L53.9829 69.9367V69.7493L50.9218 69.7606L49.9847 70.0323L47.3608 70.1866C47.7699 68.6098 49.5556 69.4288 50.7968 69.0621L49.9847 69.6244L51.6536 69.2539L53.7955 69.2495V69.1871C53.1485 68.9141 52.3809 69.3976 51.8589 68.8747H54.2953C54.115 68.563 53.6959 68.5249 53.3582 68.5055C52.46 68.4543 51.6338 68.6523 50.7344 68.4999V68.4374L56.3569 68.3749V68.3125H55.2948V68.25H56.3569V68.1875H50.6719C50.6719 66.6688 50.8051 65.072 50.6273 63.5646C50.5883 63.2347 50.7615 62.4825 50.5093 62.237C50.3285 62.0608 50.015 62.1783 49.7963 62.1808C49.2144 62.187 48.6288 62.1527 48.048 62.1302C47.7876 62.1196 47.359 62.2183 47.2183 61.9321C47.0414 61.5723 47.1376 61.0713 47.1477 60.6908C47.1689 59.9018 47.1148 59.104 47.111 58.3169C47.1094 58.0096 47.2222 57.222 46.9483 57.0067C46.7072 56.8171 46.0317 56.9425 45.7365 56.9425C44.7209 56.9425 43.7044 56.8356 42.6913 56.7695C40.6537 56.6366 38.5984 56.6926 36.5531 56.6926C34.7835 56.6926 33.0023 56.6188 31.2429 56.8071C30.283 56.9099 28.7652 56.5872 27.8965 57.0424C27.6133 57.1907 27.7405 58.0997 27.7476 58.3769C27.7713 59.2939 27.7329 60.2042 27.7558 61.1175C27.7642 61.4574 27.9352 61.9902 27.7333 62.2957C27.5866 62.5175 27.1069 62.4813 26.8698 62.4969C26.0767 62.5487 25.2915 62.565 24.4959 62.565V62.565ZM38.6091 57.1527C38.9114 57.1231 39.3226 57.0975 39.605 57.2291C39.7727 57.3074 39.8554 57.5559 39.6568 57.6545C39.3114 57.8258 38.6219 57.6921 38.2398 57.6921C37.1116 57.6921 35.9913 57.7314 34.8663 57.753C34.4754 57.7606 33.6549 57.6608 33.3244 57.8813C33.0993 58.0315 33.1796 58.4611 33.1796 58.6917V60.9407C33.1796 61.1262 33.2862 61.8378 32.9866 61.8378C32.6248 61.8378 32.7513 61.0969 32.7454 60.8726C32.7229 60.0224 32.7423 59.1677 32.7423 58.3169C32.7423 58.0865 32.6523 57.6096 32.8424 57.4384C33.1483 57.163 33.9231 57.3337 34.3041 57.3119C35.7363 57.2303 37.1826 57.2926 38.6091 57.1527H38.6091ZM40.8077 57.355C41.1546 57.2158 41.6263 57.378 41.9882 57.3797C43.0304 57.3848 44.0684 57.4422 45.1118 57.4422C45.4398 57.4422 46.18 57.3049 46.4486 57.5159C46.6419 57.6679 46.6124 58.1597 46.608 58.3793C46.5918 59.1921 46.6207 60.0049 46.6114 60.8158C46.6084 61.075 46.7054 61.5817 46.4095 61.7154C46.0587 61.8734 45.4305 61.7528 45.0494 61.7528C43.9696 61.7528 42.8801 61.7054 41.8008 61.761C41.4569 61.7785 40.5536 61.8984 40.2766 61.6791C40.0487 61.4986 40.1771 60.7758 40.1837 60.514C40.2057 59.6413 39.7662 57.7727 40.8077 57.355V57.355ZM32.1175 57.8796C31.3123 58.0147 30.434 57.9536 29.6186 57.9697C29.3369 57.9753 28.8573 57.8453 28.6833 58.1387C28.5447 58.3723 28.6313 58.7437 28.6135 59.0041C28.5613 59.7675 28.6027 60.5465 28.6175 61.3155C28.6258 61.7416 28.7805 62.3638 28.2442 62.4401C27.9578 60.897 28.1497 59.129 28.1818 57.5672C29.1593 57.5672 30.2104 57.668 31.1805 57.5407C31.5665 57.49 32.0784 57.3773 32.1175 57.8796H32.1175ZM33.9917 60.4409C34.1503 60.2591 34.1523 60.0205 34.295 59.8337C34.4473 59.6344 34.7168 59.6482 34.9108 59.5132C35.3379 59.2146 35.756 58.6634 36.1783 59.3789C35.9792 59.3583 35.689 59.2009 35.5044 59.3052C35.3251 59.4064 35.2773 59.6425 35.1029 59.7544C34.8655 59.9068 34.6213 59.8649 34.4517 60.1323C34.3006 60.3703 34.0712 61.1419 33.7987 61.2312C33.5064 61.3274 33.5545 60.7752 33.5544 60.6283V58.8791C33.5544 58.6841 33.4891 58.3307 33.6186 58.1671C33.793 57.947 34.4239 58.0788 34.6789 58.0491C35.8142 57.917 37.027 58.01 38.1774 58.0044C38.3751 58.0035 39.5434 57.8404 39.4373 58.2463C39.3843 58.4494 39.0777 58.3833 38.927 58.3801C38.4062 58.3693 37.8852 58.3719 37.3643 58.3787C36.536 58.3895 35.6928 58.2987 34.8663 58.3973C34.6419 58.424 34.1962 58.3765 34.0559 58.5867C33.8001 58.97 33.9917 59.9856 33.9917 60.441V60.4409ZM41.1136 58.1295L41.1761 59.379H41.2385L41.3387 58.3602L42.2381 58.2554L44.8619 58.4152L45.9488 58.4796L46.0489 59.1916L46.1114 61.0033C46.3415 60.6665 46.2464 60.0218 46.1997 59.6289C46.1629 59.319 46.3138 58.5324 46.0735 58.3078C45.8056 58.0575 45.0768 58.192 44.737 58.192C43.526 58.192 42.3239 58.1295 41.1136 58.1295ZM28.9939 61.8154C28.6982 61.1107 28.7706 59.8294 28.8257 59.0666C28.8436 58.8193 28.7716 58.3717 29.0656 58.2697C29.7434 58.0343 30.6616 58.2263 31.3703 58.2022C31.4939 58.198 32.1343 58.132 31.9816 58.4257C31.8876 58.6064 31.5962 58.5613 31.4303 58.5775C30.91 58.6281 30.3894 58.6279 29.8685 58.6668C29.6566 58.6827 29.4026 58.6365 29.3239 58.8838C29.1478 59.4371 29.2209 60.2992 29.2462 60.8783C29.2626 61.2519 29.3835 61.6055 28.9939 61.8154ZM41.9257 59.4414C42.3545 59.2471 42.4617 59.2015 42.9253 59.3164C42.6589 58.7637 42.1484 58.9655 41.9257 59.4414ZM39.7392 59.8787C39.3058 60.003 38.8728 59.8899 38.9895 59.3789L38.2398 59.4414C38.667 58.5476 39.372 59.4208 39.7392 59.8787ZM44.1123 60.0661C43.9878 59.5226 44.3309 59.4339 44.6121 59.0665C44.2257 59.1278 43.4664 59.8387 44.1123 60.0661ZM32.2425 60.1286C31.8247 59.3427 31.0408 60.2204 30.8056 60.7533C31.2191 60.852 31.8047 60.7802 32.0551 61.1906L30.993 61.0775L29.8686 61.3031L29.4312 61.0657C29.8422 61.0469 30.9888 60.5015 30.3484 59.9768C29.8489 59.5676 29.8351 60.5022 29.931 60.7533L29.5562 60.8782C29.6029 60.5509 29.4865 60.1773 29.6817 59.8856C29.991 59.4233 30.6905 59.5907 30.8681 60.0661C31.2078 59.9043 31.401 59.402 31.8054 59.3939C32.1321 59.3876 32.7301 59.9643 32.2425 60.1286ZM38.1774 59.5039C37.9491 60.211 36.5209 60.0024 36.2407 59.4414L37.2403 59.6194L38.1774 59.5039ZM41.1136 59.4414V60.9407C41.4861 60.699 41.2385 59.8393 41.2385 59.4414H41.1136ZM37.865 60.6908L37.99 60.4409C37.0024 60.6084 36.6768 60.4478 35.8659 59.8787L36.3032 60.6908C35.687 60.544 35.4373 60.078 35.616 59.5039C36.1901 59.5207 36.4511 60.0592 36.9904 60.1792C37.5051 60.2929 37.7854 59.8468 38.2306 59.8606C38.7413 59.8762 38.0276 60.6134 37.865 60.6908ZM44.6121 59.6288V59.8787H44.6745L44.6121 59.6288ZM45.2368 59.6288L44.7995 60.6908L45.2368 60.2535H45.5491L45.3617 59.6288H45.2368ZM41.6758 60.5659C42.0251 60.4697 42.2416 60.3185 42.4255 60.0036L41.6758 60.5659ZM32.0551 60.1286L31.8677 60.5659L32.2425 60.8782L32.18 60.9407C31.9947 60.8801 31.7357 60.8326 31.6148 60.6646C31.3468 60.2923 31.7325 60.0792 32.0551 60.1286ZM30.1237 60.1861C30.321 60.1504 30.3489 60.5371 30.1679 60.5709C29.9561 60.6102 29.9186 60.2235 30.1237 60.1861ZM35.7409 60.7533L35.0547 60.5684L34.4915 60.8782C34.5342 60.058 35.5187 59.9618 35.7409 60.7533ZM39.4268 60.6908L38.4897 60.8158L38.4273 60.7533C38.6261 60.2129 39.2793 59.9768 39.4268 60.6908ZM61.2298 60.1911C62.3711 60.8895 63.4257 61.8559 63.6662 63.2522C62.874 62.6943 62.3299 61.8416 61.7739 61.0657C61.5946 60.8158 61.2479 60.5028 61.2298 60.1911ZM43.0502 60.3785C43.21 60.6827 43.486 60.694 43.7999 60.7533L43.0502 60.3785ZM13.8131 60.6908C13.3477 61.7366 12.3109 63.0942 11.3767 63.752C11.6125 62.4244 12.6162 61.2506 13.8131 60.6908ZM32.6798 67.9377H32.18V62.4401C34.1623 62.4001 36.1338 62.3776 38.1149 62.3776C38.6029 62.3776 39.129 62.3276 39.6131 62.3845C39.801 62.4063 40.0236 62.57 39.8621 62.7774C39.6549 63.0435 38.6787 62.8674 38.3648 62.8799C36.9296 62.9355 35.4111 62.6706 33.9917 62.8511C33.704 62.8874 32.9226 62.7887 32.7408 63.0304C32.5792 63.2453 32.6488 63.7133 32.6664 63.9656C32.7108 64.6047 32.6173 65.237 32.6173 65.8761C32.6173 66.5558 32.5553 67.2673 32.6798 67.9376V67.9377ZM49.9847 62.565C50.341 63.707 50.1096 65.1826 50.1096 66.3758C50.1096 66.6745 50.2433 67.4135 50.0095 67.634C49.6528 67.9701 48.4523 67.7402 47.9856 67.7509C46.2365 67.7915 44.4893 67.8102 42.7379 67.8127C42.3064 67.8134 41.1871 68.0239 40.8389 67.7484C40.6401 67.5909 40.6436 66.8631 40.6631 66.6264C40.7435 65.653 40.6763 64.6666 40.6763 63.6895C40.6763 63.3996 40.5283 62.7124 40.7851 62.5044C41.0411 62.297 41.6797 62.3963 41.9882 62.3963C43.0303 62.397 44.0685 62.382 45.1118 62.3776C46.7378 62.3701 48.3458 62.6512 49.9847 62.565H49.9847ZM31.4303 62.8774C31.6426 63.6183 30.5075 63.4071 30.0559 63.4502C28.5207 63.5964 26.974 63.5646 25.433 63.5646C25.433 64.9508 25.6572 66.5826 25.3705 67.9376L25.0581 67.8752V64.4392C25.0581 64.1374 24.9256 63.4171 25.1224 63.1735C25.3505 62.8917 26.4065 63.0654 26.7449 63.0648C28.2772 63.0623 29.9172 63.1585 31.4303 62.8774ZM33.4919 63.752C33.41 64.9034 33.7128 66.3477 33.3045 67.4379C32.9275 67.2386 33.0464 66.8662 33.0537 66.5008C33.0692 65.7311 32.9921 64.9615 32.9921 64.1893C32.9921 63.915 32.9034 63.3722 33.2503 63.2722C33.651 63.1566 34.1426 63.2659 34.554 63.2497C35.7179 63.2041 36.886 63.2247 38.0524 63.1872C38.3024 63.1797 39.5788 63.0261 39.4614 63.4915C39.3755 63.8326 38.3108 63.6895 38.0524 63.6895C36.5298 63.6895 35.0114 63.752 33.4919 63.752ZM41.9257 67.2505L49.1725 67.063V66.9381C47.61 66.9381 46.0465 66.9624 44.4871 67.0374C43.9711 67.0624 42.9297 67.2698 42.4633 67.0349C41.8854 66.7432 42.1435 65.1726 42.0989 64.6266C42.0767 64.3561 41.9672 63.9906 42.2473 63.8138C42.627 63.5746 43.3076 63.7201 43.7374 63.6789C44.9279 63.5658 46.1644 63.5646 47.3608 63.5646C47.9719 63.5646 48.7101 63.6758 49.2975 63.5021V63.3772C48.6705 63.1916 47.8801 63.3234 47.2359 63.364C46.0514 63.439 44.8604 63.4153 43.675 63.4965C43.3251 63.5202 42.2198 63.3122 41.9899 63.6021C41.7944 63.8494 41.9633 64.4061 41.9826 64.6891C42.0413 65.5456 41.9257 66.3965 41.9257 67.2505H41.9257ZM25.8703 67.9376L25.6829 64.0643C26.2723 63.8794 26.8344 64.0106 27.4321 63.9938C28.3239 63.9688 29.2992 63.9319 30.1809 63.832C30.3296 63.8157 31.5266 63.7507 31.1415 64.1431C30.9031 64.3861 30.1821 64.248 29.8685 64.2518C29.0086 64.2624 28.1418 64.388 27.2815 64.4267C26.9985 64.4392 26.5071 64.3417 26.265 64.5035C26.0271 64.6622 26.1654 65.0789 26.1688 65.3138C26.1779 65.9398 26.1736 66.5639 26.1471 67.188C26.1333 67.5116 26.2277 67.7971 25.8703 67.9376ZM46.4237 64.6891C46.9673 64.5366 47.0857 64.2062 47.6732 64.5017C47.4305 63.8088 46.6618 64.1893 46.4237 64.6891ZM43.1127 65.5637C43.5331 65.5637 44.0943 65.5462 44.3783 65.1726C44.5378 64.9627 44.4562 64.5991 44.7453 64.4879C44.9919 64.3936 45.3044 64.5847 45.5491 64.6266C45.3462 64.2743 44.7055 64.0875 44.4203 64.4592C44.2446 64.6885 44.3075 64.9708 44.0484 65.1601C43.77 65.3632 43.2139 65.207 43.1127 65.5637ZM59.4805 64.3767C59.8029 65.5812 60.0365 66.6164 59.8728 67.8752C59.8304 68.2038 59.841 68.5861 59.6679 68.8747C59.2138 67.7271 58.451 65.4413 59.4805 64.3767ZM36.678 65.5012C36.8246 65.3507 36.8937 65.1258 37.0669 65.0021C37.7673 64.501 38.1627 65.3382 38.3023 65.8761H38.3648C38.497 65.3707 39.1509 64.666 39.6087 65.3831C39.7856 65.6605 39.6739 66.006 39.7392 66.3134L39.3643 66.3758L39.6142 66.6882L37.9275 66.527L36.5531 66.8131C36.8075 66.4146 37.4193 66.3583 37.6695 65.8761C37.7876 65.648 37.6587 65.1176 37.3119 65.3032C37.0816 65.4269 37.117 65.7848 37.0529 66.001L36.3032 65.6886L36.3657 65.9385C35.7589 66.026 34.3408 64.0856 33.9963 65.4387C33.9327 65.6886 34.0619 65.931 33.9917 66.1884C33.6247 65.8648 33.657 65.0927 34.1201 64.8428C34.5558 64.6072 34.9436 64.8884 35.3661 64.9615C35.9571 65.0627 36.5909 64.5416 36.678 65.5012H36.678ZM15.6248 64.8765C16.6473 66.1559 15.6982 67.9683 15.4998 69.312C15.2215 69.1003 15.2577 68.5749 15.2139 68.25C15.0742 67.2111 15.0179 65.7948 15.6248 64.8765ZM28.8065 65.1889V65.3138L27.8069 65.1889C28.0983 64.8915 28.4631 65.0533 28.8065 65.1889ZM30.3683 65.8761L31.2429 65.5012C31.221 66.2378 30.5405 66.3552 29.931 66.1884C30.0682 65.4812 29.9395 65.147 29.1813 65.4387C29.3085 65.0089 30.0311 64.7947 30.3306 65.1982C30.4774 65.3963 30.3963 65.6536 30.3683 65.8761ZM46.861 65.0639C46.4282 65.9916 47.1376 66.5152 48.048 66.2509C47.7961 65.8636 46.6495 66.2609 46.8992 65.4369C46.9377 65.3094 46.9984 65.187 47.0485 65.0639H46.861ZM35.6785 65.3138V65.3763L36.3032 65.6262C36.2562 65.2082 36.0378 65.1426 35.6785 65.3138ZM45.1118 65.2513C45.1345 65.7892 45.0097 65.8386 44.737 66.2509C45.2005 66.1984 45.5974 65.5581 45.1118 65.2513ZM27.3696 66.001C27.0955 66.6826 26.5071 65.7942 26.4325 65.4387L27.3696 66.001ZM35.9283 66.3134C35.7016 66.2796 35.5077 66.214 35.3036 66.1085C35.0773 65.9916 34.8489 66.0472 34.6353 65.9523C34.4051 65.8498 34.4035 65.4381 34.6826 65.405C34.9942 65.3682 35.8408 66.0335 35.9283 66.3134ZM38.0524 66.2509C38.4758 66.354 39.0601 66.3302 39.2895 65.8704C39.4037 65.6412 39.214 65.3269 38.9413 65.4263C38.6929 65.5168 38.7778 65.8723 38.5429 65.9891C38.3211 66.0991 38.1506 65.9729 38.0524 66.2509ZM37.5526 65.6886C37.3532 65.6805 37.3112 65.638 37.3027 65.4387L37.5526 65.6886ZM29.4937 65.6262C29.627 66.0004 29.2998 66.6513 29.6848 66.8556C29.9279 66.9849 30.6164 66.9475 30.8574 66.82C30.9708 66.76 31.2307 66.4652 31.3578 66.6645C31.5105 66.9037 31.0803 67.0505 30.9303 67.0836C30.0715 67.2736 28.9137 67.2355 29.2597 66.1259C29.324 65.9198 29.3367 65.7798 29.4937 65.6262ZM39.052 65.6262L38.9895 65.6886L39.052 65.6262ZM28.4941 65.6886C28.5439 66.021 28.7394 66.3452 28.6553 66.6882C28.4907 67.3598 27.3441 67.316 26.8074 67.188V67.063C27.182 66.9518 27.8542 67.1343 28.14 66.8406C28.51 66.4602 27.6647 65.7836 28.4941 65.6886ZM35.5535 66.6882V66.8131L34.8038 66.8488L33.8043 67.0006C34.3605 66.3102 34.7832 66.3465 35.5535 66.6882ZM66.1651 70.6864C65.1643 70.0748 64.3315 68.1744 64.1035 67.063C65.4441 67.4604 65.992 69.467 66.1651 70.6864ZM10.9393 67.5628C11.0243 68.5049 10.1214 69.8568 9.55924 70.5615C9.36689 70.8026 9.21345 71.0994 8.9402 71.2487C9.16822 69.9018 9.65526 68.25 10.9393 67.5628ZM49.1101 68.4374C49.3036 69.2608 48.4934 68.9091 47.9855 68.951C47.7299 68.9722 47.5405 69.1434 47.2984 69.1952C47.0439 69.2496 46.7991 69.0953 46.5487 69.0759C46.141 69.0453 45.6446 69.2489 45.2458 69.1159C45.0402 69.0465 44.8952 68.6561 45.1319 68.5374C45.4489 68.3793 46.0734 68.4999 46.4237 68.4999C46.7818 68.4999 47.13 68.4468 47.4858 68.4381C48.0265 68.4249 48.5691 68.4373 49.1101 68.4373V68.4374ZM50.6094 68.4373V68.4998L50.7343 68.8122C50.2123 68.9665 49.7239 68.9552 49.4849 68.4373H50.6094ZM27.682 68.6872C26.8372 69.0059 25.5597 69.1964 24.6833 68.9371C25.2607 68.556 26.0916 68.7385 26.7449 68.5966C27.0897 68.5211 27.4071 68.4067 27.682 68.6872ZM31.8676 69.1245V69.187L30.4932 69.3744C30.1333 68.5635 28.8542 68.8397 28.1193 68.5623C28.7457 68.2993 29.8125 68.4998 30.4932 68.4998C30.7379 68.4998 31.1233 68.428 31.348 68.5373C31.5709 68.646 31.6075 68.9852 31.8676 69.1245ZM36.8654 68.4998C36.9901 69.1876 37.6014 69.1052 38.1149 69.3744C36.9653 70.2303 34.6521 70.141 33.3703 69.5993C32.8835 69.3938 32.5483 69.0333 31.9926 68.8747V68.4998H36.8654ZM42.1756 68.8122V68.9371C41.933 69.0627 41.7432 69.2938 41.4884 69.3907C41.0207 69.5687 40.4691 69.3101 40.3014 69.9367C39.7348 69.8261 39.5867 69.4194 39.1135 69.2332C38.5637 69.0171 37.5474 69.1964 37.3027 68.4998C38.8669 68.4998 40.7191 68.2143 42.1756 68.8122ZM44.612 68.4998C44.5975 68.7141 44.6497 68.9827 44.5032 69.1608C44.1006 69.6512 43.0022 69.4082 42.5504 69.1245C42.8106 68.8684 42.6322 68.7203 42.363 68.5623C42.9603 68.3118 43.9631 68.4998 44.612 68.4998ZM29.3063 69.0621V69.1245C28.0242 69.4956 26.7436 69.8761 25.433 69.312L26.3076 69.277L27.9943 68.8878L29.3063 69.0621ZM32.6173 69.6243C32.3067 69.7536 32.0103 69.9529 31.6802 70.0285C31.2273 70.1322 30.2526 69.8948 30.1809 70.5614L29.2438 70.6239C29.5762 69.878 30.3915 69.6362 31.1804 69.4694C31.5036 69.4007 31.8067 69.5031 32.055 69.2495C32.3141 69.3095 32.5302 69.3557 32.6173 69.6243ZM47.1109 69.4994C46.9393 70.3678 46.3138 69.9061 45.6741 69.9423C45.4026 69.9579 44.9549 70.1104 44.7105 69.9348C44.3024 69.6418 44.9336 69.2383 45.2368 69.2963C45.5349 69.3538 45.8049 69.3851 46.1114 69.3719C46.485 69.3563 46.759 69.3482 47.1109 69.4994V69.4994ZM30.1184 69.3744V69.4994C29.4767 69.8342 28.988 69.8773 28.8689 70.6864C27.9581 70.7257 27.6269 70.9556 26.8074 70.374L26.8698 69.9992C27.3615 69.883 27.8927 69.8855 28.3692 69.7468C28.9463 69.5781 29.4995 69.192 30.1184 69.3744ZM44.2372 70.1866L42.6754 70.3228L41.4259 70.7001L40.4888 70.6239L40.8012 69.7493C41.2638 69.6906 41.8049 69.4263 42.2381 69.4207C42.5635 69.4163 42.916 69.5919 43.2376 69.6487C43.7312 69.7355 44.0367 69.6418 44.2372 70.1866ZM40.1765 70.1866C39.6544 71.5304 37.3765 70.6289 37.74 72.4981C37.2771 72.6936 36.5821 72.4856 36.2157 72.1332C35.9916 71.9177 35.9826 71.6759 35.6785 71.4985L36.6578 70.9719L36.6834 70.2134L37.2403 70.0429L38.859 69.495L39.3653 69.8961L40.1765 70.1866ZM54.1079 69.7494V69.8118H54.2953L54.1079 69.7494ZM36.3657 70.8114C34.96 71.4086 33.5045 70.9757 32.055 71.3112C31.8255 70.7402 31.1184 70.7976 30.6806 70.4366C31.1033 70.3116 31.5629 70.3991 31.9926 70.2722C32.3303 70.1723 32.6359 69.8812 32.9921 69.8549C33.5335 69.8156 34.2534 70.0773 34.8038 70.1504C35.4822 70.241 36.0815 70.0917 36.3657 70.8114ZM45.6741 70.2491L44.5496 71.5611C43.5797 71.5192 42.4523 71.4492 41.5509 71.0613V70.9363C42.8444 70.4672 44.2989 70.3578 45.6741 70.2491ZM45.5491 70.8114C46.189 69.9861 47.0851 70.6302 47.9231 70.3853C48.0983 70.3341 48.7539 70.1835 48.7061 70.5509C48.6738 70.7989 48.2237 70.7533 48.048 70.8133C47.2424 71.0875 46.3475 70.654 45.5491 70.8114V70.8114ZM56.7317 73.1853L57.7313 74.8721C56.5876 74.5422 55.7305 73.3222 54.6701 74.5597L56.107 75.3719C55.9549 75.5943 55.739 75.7992 55.6511 76.0591C55.3706 76.8887 56.1848 77.7202 56.4818 78.433L57.8562 77.7458C57.5472 77.1655 56.8904 76.4776 56.8567 75.8092C57.3831 76.1166 58.4778 76.9412 59.1057 76.8656C59.5105 76.8169 59.9634 76.3458 60.2926 76.1216L58.4809 75.3094C58.6196 75.0658 58.8302 74.8384 58.8939 74.5597C59.0732 73.772 58.2941 73.1066 57.9187 72.4981L56.7317 73.1853ZM15.3124 74.6847L16.4994 75.4344L17.8738 73.2478L16.8142 72.63L16.3207 73.1229L15.3124 74.6847ZM18.3111 73.6227L17.9362 74.3099L18.436 74.5597C18.2334 75.1551 17.8458 76.2546 17.249 76.5476C16.8294 76.7532 16.5733 76.309 16.1935 76.3277C15.9266 76.3408 15.7223 76.8525 15.6248 77.0586C16.1612 77.341 16.6218 77.4997 17.1866 77.1836L16.9367 77.8708L18.1861 78.558L19.8729 74.4973L18.3111 73.6227ZM53.7955 74.9346C52.9472 75.5387 51.7357 76.0853 50.7343 76.3714L50.9842 77.1836C51.448 77.0037 51.9066 76.8094 52.3586 76.602C52.5251 76.5257 52.7776 76.3333 52.97 76.3977C53.1795 76.4677 53.2853 76.8169 53.3734 76.9962C53.6218 77.5016 54.4077 78.5617 53.733 78.9328L54.0454 79.6825C54.2877 79.6125 54.5144 79.5051 54.7326 79.3776C56.1059 78.5755 55.1417 77.2579 54.5717 76.2465C54.3266 75.8117 54.1582 75.2863 53.7955 74.9346ZM20.81 75.0595L18.8733 78.9328L20.1853 79.5575L22.0594 75.6218L20.81 75.0595ZM22.9341 75.1845L22.3093 76.6838L23.6837 77.2461L21.4347 80.1823C21.7812 80.2997 22.3824 80.7152 22.7457 80.6314C23.0714 80.5565 23.3176 80.0523 23.5094 79.8074C24.1124 79.0384 25.2076 77.9551 25.433 76.9962C25.1207 76.9224 23.941 76.6444 23.87 76.2952C23.8294 76.0947 24.0058 75.8148 24.0586 75.6218L22.9341 75.1845ZM47.1109 76.8088L47.5482 78.3706L49.0476 77.9333L49.235 81.5567L50.6094 81.1194L50.2346 76.6213L48.4853 77.2461C48.2657 76.2965 47.8728 76.6326 47.1109 76.8088ZM25.9952 81.8066L27.2447 77.6209C26.9747 77.5016 26.3679 77.2055 26.0749 77.2954C25.8564 77.3623 25.7874 77.7465 25.7245 77.9333L25.1206 79.745C25.0154 80.0604 24.5067 81.0356 24.6908 81.3343C24.8617 81.611 25.6927 81.721 25.9952 81.8066ZM51.3591 77.9333L52.3586 80.4322L52.81 81.2555L54.1079 80.7445L52.671 77.4335L51.3591 77.9333ZM45.5491 78.0582L46.1114 80.5571L47.4858 80.2447L46.7986 77.7458L45.5491 78.0582ZM27.9943 77.8708L27.8069 78.6205L29.931 79.1202C29.8148 79.7193 29.7009 81.8172 28.8689 81.6816L28.6815 82.4938C29.2322 82.6006 29.923 82.7705 30.4249 82.4232C30.8042 82.1601 30.8653 81.6654 30.9355 81.2443C31.0836 80.3572 31.297 79.4545 31.3678 78.558L27.9943 77.8708ZM41.176 78.8703C41.2809 79.3108 41.1953 79.6138 41.7383 79.62V83.181L43.1127 82.9935C43.1127 82.1158 43.0517 81.2474 43.0502 80.3697C43.0499 80.1354 42.9087 79.6513 43.0881 79.4701C43.3533 79.2033 43.6754 79.5682 43.7616 79.8074C44.0049 80.4834 44.0379 81.288 44.1747 81.994C44.0279 82.0221 43.7747 82.0246 43.6776 82.1564C43.5512 82.3276 43.6473 82.7949 43.8716 82.843C44.361 82.9486 45.2688 82.6524 45.7365 82.4938C45.5412 81.4861 45.441 79.3595 44.5486 78.7235C43.7895 78.1825 42.0221 78.6686 41.176 78.8703ZM32.2425 78.6829L32.8047 80.3697C31.4947 80.3978 31.3893 81.9559 31.3678 82.9935L32.8047 83.181C32.8099 82.5575 32.8086 81.5704 33.1796 81.0569C33.3256 81.591 33.7362 82.9292 34.2035 83.2428C34.544 83.4708 35.1649 83.3684 35.5535 83.3684L34.6789 81.5567C36.0552 81.4967 35.8659 80.0098 35.8659 78.9953L34.6164 78.9328L34.429 80.8695H34.3041C34.1697 80.3997 33.8158 79.1552 33.4033 78.8816C33.121 78.6942 32.574 78.7448 32.2425 78.6829ZM40.5513 78.8703L39.3019 78.9953L39.4893 81.5567L40.7626 81.4298L40.8012 80.807L40.5513 78.8703ZM27.6195 79.4326L26.6824 82.9935L28.1193 83.3684L28.9314 79.745L27.6195 79.4326ZM36.3657 81.5567H38.8021V80.7445H37.0529L36.4299 80.8445L36.3657 81.5567ZM65.9152 84.1805L65.9776 84.243L65.9152 84.1805ZM37.157 92.8848L37.1986 92.9061L37.157 92.8848Z" fill="black"/>
</g>
<defs>
<clipPath id="clip0_48_330">
<rect width="74.9066" height="94.0407" fill="white"/>
</clipPath>
</defs>
</svg>
